<svg width="61" height="61" viewBox="0 0 61 61" fill="black" xmlns="http://www.w3.org/2000/svg">
<g filter="url(#filter0_d_4588_3000)">
<rect x="4.98096" width="50.828" height="50.828" rx="7.26115" fill="#ffffffeb"/>
</g>
<path d="M17.2022 11.5175C17.6233 11.4087 18.026 11.3044 18.4289 11.2003C20.5632 10.6498 22.6978 10.0998 24.8321 9.54926C26.7494 9.05473 28.6678 8.56468 30.5826 8.06003C30.8862 7.97984 31.1675 7.98014 31.4712 8.06003C33.6964 8.64397 35.9246 9.2151 38.1517 9.78981C40.2343 10.3273 42.3171 10.8641 44.4 11.4013C44.5442 11.4385 44.6885 11.4761 44.8473 11.5175C44.8627 11.6692 44.8798 11.8195 44.8926 11.9703C45.0042 13.2834 45.0696 14.5988 45.052 15.9175C45.0378 16.9799 44.9804 18.0393 44.8753 19.0966C44.634 21.523 44.1408 23.8877 43.364 26.1833C42.2374 29.5126 40.5975 32.5265 38.4543 35.2295C36.9058 37.1826 35.1632 38.9112 33.2031 40.3879C32.5547 40.8764 31.8878 41.334 31.179 41.7179C31.1317 41.7436 31.0845 41.7695 31.0314 41.7981C30.6156 41.5847 30.2132 41.3418 29.8215 41.0788C28.6966 40.3238 27.6422 39.468 26.6431 38.5347C24.8715 36.88 23.311 35.0233 21.9677 32.9602C20.8339 31.2188 19.8913 29.3665 19.1333 27.4069C18.4228 25.5701 17.8915 23.6752 17.5478 21.7233C17.4114 20.9489 17.3082 20.1667 17.214 19.3849C17.0395 17.935 16.9836 16.4767 17.004 15.0158C17.0188 13.9594 17.0731 12.9048 17.1757 11.8532C17.186 11.7464 17.193 11.6397 17.2028 11.5181L17.2022 11.5175ZM26.0995 26.9845V11.3059C23.687 11.9286 21.286 12.548 18.8813 13.1686C18.8492 13.7126 18.8075 14.2331 18.7893 14.7547C18.7426 16.1065 18.7563 17.4571 18.8696 18.806C18.9314 19.5411 19.0147 20.2726 19.1249 21.0011C19.3684 22.6125 19.745 24.1876 20.2537 25.7269C20.6541 26.9386 21.1378 28.1116 21.6984 29.2485C21.7247 29.3018 21.7342 29.3766 21.8083 29.4011V19.3595C21.0329 19.0433 20.7662 18.3332 20.8713 17.6911C20.9815 17.0184 21.5105 16.5262 22.1682 16.4967C22.839 16.4663 23.3585 16.9379 23.526 17.5209C23.6163 17.8351 23.6115 18.1499 23.505 18.4575C23.3518 18.8993 23.0501 19.1869 22.6379 19.3536V19.5673C22.6379 23.305 22.6385 27.0429 22.6357 30.7806C22.6357 30.9297 22.672 31.0522 22.7467 31.1768C23.9812 33.2306 25.4458 35.0775 27.1355 36.7209C28.1726 37.7296 29.2762 38.6471 30.4665 39.443C30.5188 39.4778 30.5734 39.5088 30.6416 39.5509V19.3586C29.9655 19.1064 29.5914 18.462 29.6884 17.7326C29.7706 17.1155 30.2482 16.5525 30.9522 16.4988C31.5372 16.4544 32.1048 16.8175 32.3268 17.4494C32.4347 17.7567 32.4412 18.0727 32.35 18.386C32.2113 18.8626 31.901 19.1705 31.4855 19.3461V39.5589C31.6569 39.4442 31.8109 39.3458 31.9605 39.24C34.9954 37.0893 37.4728 34.3573 39.4343 31.088C39.4874 30.9994 39.495 30.9112 39.495 30.814C39.4944 27.0593 39.4944 23.3044 39.4944 19.5497V19.3705C38.7291 18.9953 38.4062 18.4128 38.5387 17.6634C38.6539 17.0112 39.1916 16.5173 39.8414 16.4967C40.5108 16.4753 41.0248 16.9432 41.1917 17.5329C41.2828 17.8545 41.2719 18.1722 41.1576 18.484C41.0029 18.9052 40.7119 19.181 40.3145 19.3485V29.168C40.3145 29.2133 40.312 29.2592 40.3159 29.3042C40.3184 29.3322 40.3308 29.3594 40.3419 29.3975C40.3623 29.3695 40.3747 29.3573 40.3819 29.3424C40.4608 29.1814 40.5405 29.0207 40.6174 28.8586C42.2704 25.3719 43.1322 21.6649 43.3277 17.7734C43.392 16.4902 43.3721 15.2072 43.2958 13.9251C43.281 13.6765 43.2572 13.4282 43.2362 13.1662C40.8318 12.5459 38.4319 11.9268 36.0253 11.3059V26.9809C36.8171 27.3196 37.0414 28.0675 36.9309 28.6541C36.8121 29.2842 36.2808 29.7722 35.7018 29.8086C35.0287 29.8509 34.4723 29.3826 34.3073 28.7724C34.2234 28.4618 34.2329 28.1557 34.3409 27.854C34.4947 27.4251 34.7891 27.147 35.1797 26.9863V11.0948C35.1417 11.0814 35.1123 11.0686 35.0816 11.0608C33.7791 10.7246 32.4767 10.3878 31.1731 10.0557C31.0993 10.0369 31.0135 10.0408 30.9391 10.0599C29.8011 10.349 28.6636 10.642 27.5264 10.9351C27.3307 10.9854 27.1358 11.0385 26.9398 11.0904V26.9765C27.6911 27.3857 27.9978 27.9917 27.8315 28.7143C27.685 29.3504 27.1185 29.8405 26.446 29.8089C25.8459 29.7806 25.3108 29.2953 25.1916 28.6261C25.084 28.0213 25.3401 27.302 26.0987 26.9845H26.0995ZM22.2272 17.0863C21.7616 17.0863 21.3978 17.4762 21.4009 17.9722C21.4037 18.4587 21.7672 18.842 22.2261 18.8423C22.6869 18.8429 23.0629 18.4414 23.0562 17.9564C23.0495 17.472 22.6818 17.0863 22.2272 17.0863ZM31.0568 18.8423C31.5106 18.8397 31.8847 18.4471 31.8783 17.9654C31.8708 17.402 31.4343 17.0732 31.0431 17.0839C30.5857 17.0965 30.2247 17.4753 30.2244 17.963C30.2238 18.4575 30.591 18.845 31.0571 18.842H31.0568V18.8423ZM39.8954 18.8423C40.3531 18.8394 40.7144 18.4536 40.7152 17.9666C40.7161 17.4717 40.35 17.0842 39.8834 17.0866C39.4298 17.0887 39.0613 17.4801 39.0596 17.9624C39.0577 18.4495 39.4338 18.8456 39.8954 18.8426V18.8423Z" fill="black"/>
<defs>
<filter id="filter0_d_4588_3000" x="0.140193" y="0" width="60.5097" height="60.5097" filterUnits="userSpaceOnUse" color-interpolation-filters="sRGB">
<feFlood flood-opacity="0" result="BackgroundImageFix"/>
<feColorMatrix in="SourceAlpha" type="matrix" values="0 0 0 0 0 0 0 0 0 0 0 0 0 0 0 0 0 0 127 0" result="hardAlpha"/>
<feOffset dy="4.84076"/>
<feGaussianBlur stdDeviation="2.42038"/>
<feComposite in2="hardAlpha" operator="out"/>
<feColorMatrix type="matrix" values="0 0 0 0 0 0 0 0 0 0 0 0 0 0 0 0 0 0 0.25 0"/>
<feBlend mode="normal" in2="BackgroundImageFix" result="effect1_dropShadow_4588_3000"/>
<feBlend mode="normal" in="SourceGraphic" in2="effect1_dropShadow_4588_3000" result="shape"/>
</filter>
</defs>
</svg>
